<svg xmlns="http://www.w3.org/2000/svg" viewBox="0 0 512 512">
  <defs>
    <linearGradient id="bg" x1="0%" y1="0%" x2="100%" y2="100%">
      <stop offset="0%" style="stop-color:#1DB954"/>
      <stop offset="100%" style="stop-color:#1ed760"/>
    </linearGradient>
  </defs>
  <rect width="512" height="512" rx="90" fill="url(#bg)"/>
  <path d="M356 235c-52-31-138-34-188-19-8 2-16-2-18-10-2-8 2-16 10-18 57-17 151-13 210 23 7 4 9 13 5 20-4 6-13 9-19 4z" fill="white"/>
  <path d="M333 278c-43-26-108-33-158-18-7 2-14-2-16-9-2-7 2-14 9-16 56-17 128-9 177 21 6 4 8 12 4 18-4 6-11 8-16 4z" fill="white"/>
  <path d="M214 337c31-5 67-2 99 17 5 3 7 10 4 15-3 5-10 7-15 4-27-16-58-19-84-14-6 1-12-3-13-9-1-7 3-13 9-13z" fill="white"/>
</svg>
